{"accessors" : [{"bufferView" : 0, "byteOffset" : 0, "componentType" : 5123, "count" : 900, "type" : "SCALAR", "max" : [899], "min" : [0]}, {"bufferView" : 1, "byteOffset" : 0, "componentType" : 5126, "count" : 900, "type" : "VEC3", "max" : [28.36546516418457, -10.696613311767578, 25.450321197509766], "min" : [-28.365459442138672, -10.950060844421387, 6.89239501953125], "name" : "POSITION"}, {"bufferView" : 1, "byteOffset" : 12, "componentType" : 5126, "count" : 900, "type" : "VEC3", "max" : [0.9946500062942505, 0.994649350643158, 0.9946500062942505], "min" : [-0.9946464896202087, -0.9946491718292236, -0.9946489334106445], "name" : "NORMAL"}, {"bufferView" : 1, "byteOffset" : 24, "componentType" : 5126, "count" : 900, "type" : "VEC2", "max" : [1, -0], "min" : [0, -1], "name" : "TEXCOORD_0"}, {"bufferView" : 0, "byteOffset" : 1800, "componentType" : 5123, "count" : 5478, "type" : "SCALAR", "max" : [5477], "min" : [0]}, {"bufferView" : 2, "byteOffset" : 0, "componentType" : 5126, "count" : 5478, "type" : "VEC3", "max" : [29.000450134277344, 0.3175000846385956, 21.998939514160156], "min" : [-10.829679489135742, -0.3175000548362732, 0], "name" : "POSITION"}, {"bufferView" : 2, "byteOffset" : 12, "componentType" : 5126, "count" : 5478, "type" : "VEC3", "max" : [0.997488260269165, 1.0000044107437134, 0.9998350143432617], "min" : [-1.0000044107437134, -1.0000044107437134, -0.9998351335525513], "name" : "NORMAL"}, {"bufferView" : 2, "byteOffset" : 24, "componentType" : 5126, "count" : 5478, "type" : "VEC2", "max" : [1.0010778903961182, 1.8168127536773682], "min" : [-0.06818338483572006, -2.8168115615844727], "name" : "TEXCOORD_0"}, {"bufferView" : 0, "byteOffset" : 12756, "componentType" : 5123, "count" : 3630, "type" : "SCALAR", "max" : [3629], "min" : [0]}, {"bufferView" : 3, "byteOffset" : 0, "componentType" : 5126, "count" : 3630, "type" : "VEC3", "max" : [4.700014591217041, 0.3531686067581177, 21.998939514160156], "min" : [-28.365449905395508, -0.317385733127594, -0.21741580963134766], "name" : "POSITION"}, {"bufferView" : 3, "byteOffset" : 12, "componentType" : 5126, "count" : 3630, "type" : "VEC3", "max" : [0.9974945187568665, 1.0000038146972656, 0.999822199344635], "min" : [-0.9998598098754883, -1.0000041723251343, -0.9998210072517395], "name" : "NORMAL"}, {"bufferView" : 3, "byteOffset" : 24, "componentType" : 5126, "count" : 3630, "type" : "VEC2", "max" : [1.0178836584091187, 1.862645149230957E-09], "min" : [-0.0681890994310379, -1.0000277757644653], "name" : "TEXCOORD_0"}, {"bufferView" : 0, "byteOffset" : 20016, "componentType" : 5123, "count" : 3978, "type" : "SCALAR", "max" : [3977], "min" : [0]}, {"bufferView" : 4, "byteOffset" : 0, "componentType" : 5126, "count" : 3978, "type" : "VEC3", "max" : [12.4968843460083, 0.662534236907959, 21.998939514160156], "min" : [-28.189786911010742, -0.29338210821151733, 0], "name" : "POSITION"}, {"bufferView" : 4, "byteOffset" : 12, "componentType" : 5126, "count" : 3978, "type" : "VEC3", "max" : [0.9974945187568665, 0.9999683499336243, 0.998664915561676], "min" : [-1.0000044107437134, -1.0000044107437134, -0.9986662268638611], "name" : "NORMAL"}, {"bufferView" : 4, "byteOffset" : 24, "componentType" : 5126, "count" : 3978, "type" : "VEC2", "max" : [1.0160725116729736, 0.0011482834815979004], "min" : [-0.06818489730358124, -1.0007638931274414], "name" : "TEXCOORD_0"}, {"bufferView" : 0, "byteOffset" : 27972, "componentType" : 5123, "count" : 1908, "type" : "SCALAR", "max" : [1907], "min" : [0]}, {"bufferView" : 5, "byteOffset" : 0, "componentType" : 5126, "count" : 1908, "type" : "VEC3", "max" : [28.36545181274414, 0.31750187277793884, 21.998939514160156], "min" : [10.26518440246582, -0.3174999952316284, 0.6916067004203796], "name" : "POSITION"}, {"bufferView" : 5, "byteOffset" : 12, "componentType" : 5126, "count" : 1908, "type" : "VEC3", "max" : [1.0000044107437134, 0.9946495294570923, 0.9974899291992188], "min" : [-1.0000044107437134, -1.0000044107437134, -0.9946497082710266], "name" : "NORMAL"}, {"bufferView" : 5, "byteOffset" : 24, "componentType" : 5126, "count" : 1908, "type" : "VEC2", "max" : [1.0160781145095825, 2.6971101760864258E-06], "min" : [-0.06818366795778275, -1.0000109672546387], "name" : "TEXCOORD_0"}, {"bufferView" : 0, "byteOffset" : 31788, "componentType" : 5123, "count" : 1134, "type" : "SCALAR", "max" : [1133], "min" : [0]}, {"bufferView" : 6, "byteOffset" : 0, "componentType" : 5126, "count" : 1134, "type" : "VEC3", "max" : [28.36545181274414, 0.31750214099884033, 21.998939514160156], "min" : [-4.026923179626465, -0.3174999952316284, 6.287275314331055], "name" : "POSITION"}, {"bufferView" : 6, "byteOffset" : 12, "componentType" : 5126, "count" : 1134, "type" : "VEC3", "max" : [1.0000044107437134, 0.9833173155784607, 0.989826500415802], "min" : [-1.0000044107437134, -1.0000044107437134, -0.9898273944854736], "name" : "NORMAL"}, {"bufferView" : 6, "byteOffset" : 24, "componentType" : 5126, "count" : 1134, "type" : "VEC2", "max" : [1.0160720348358154, 0.013209104537963867], "min" : [-0.06818264722824097, -1.0065786838531494], "name" : "TEXCOORD_0"}, {"bufferView" : 0, "byteOffset" : 34056, "componentType" : 5123, "count" : 1308, "type" : "SCALAR", "max" : [1307], "min" : [0]}, {"bufferView" : 7, "byteOffset" : 0, "componentType" : 5126, "count" : 1308, "type" : "VEC3", "max" : [1.856513261795044, 0.31750279664993286, 12.272188186645508], "min" : [-5.0060272216796875, -4.093777656555176, 6.287275314331055], "name" : "POSITION"}, {"bufferView" : 7, "byteOffset" : 12, "componentType" : 5126, "count" : 1308, "type" : "VEC3", "max" : [0.9946490526199341, 1.0000044107437134, 0.9986563920974731], "min" : [-1.0000044107437134, -0.9946490526199341, -0.9986575841903687], "name" : "NORMAL"}, {"bufferView" : 7, "byteOffset" : 24, "componentType" : 5126, "count" : 1308, "type" : "VEC2", "max" : [1.016076922416687, 4.563480615615845E-08], "min" : [-0.06818288564682007, -1.0000219345092773], "name" : "TEXCOORD_0"}, {"bufferView" : 0, "byteOffset" : 36672, "componentType" : 5123, "count" : 84, "type" : "SCALAR", "max" : [83], "min" : [0]}, {"bufferView" : 8, "byteOffset" : 0, "componentType" : 5126, "count" : 84, "type" : "VEC3", "max" : [28.365463256835938, -10.319714546203613, 20.58023452758789], "min" : [-28.36545181274414, -10.888579368591309, 0.8774919509887695], "name" : "POSITION"}, {"bufferView" : 8, "byteOffset" : 12, "componentType" : 5126, "count" : 84, "type" : "VEC3", "max" : [1.0000044107437134, 1.0000044107437134, 0.9977769255638123], "min" : [-1.0000044107437134, -1.0000044107437134, -1.0000044107437134], "name" : "NORMAL"}, {"bufferView" : 8, "byteOffset" : 24, "componentType" : 5126, "count" : 84, "type" : "VEC2", "max" : [0.9959312081336975, -0], "min" : [0.0049459682777523994, -1], "name" : "TEXCOORD_0"}, {"bufferView" : 0, "byteOffset" : 36840, "componentType" : 5123, "count" : 3222, "type" : "SCALAR", "max" : [3221], "min" : [0]}, {"bufferView" : 9, "byteOffset" : 0, "componentType" : 5126, "count" : 3222, "type" : "VEC3", "max" : [26.09337615966797, 9.114860534667969, 2.1950173234586146E-08], "min" : [-26.09337615966797, -9.2660551071167, -0.9017611742019653], "name" : "POSITION"}, {"bufferView" : 9, "byteOffset" : 12, "componentType" : 5126, "count" : 3222, "type" : "VEC3", "max" : [1.0000044107437134, 1.0000044107437134, 0.9947509765625], "min" : [-1.0000044107437134, -0.9947503209114075, -0.9947512149810791], "name" : "NORMAL"}, {"bufferView" : 9, "byteOffset" : 24, "componentType" : 5126, "count" : 3222, "type" : "VEC2", "max" : [1.0160727500915527, 0.008276104927062988], "min" : [-0.06818323582410812, -1.003049612045288], "name" : "TEXCOORD_0"}, {"bufferView" : 0, "byteOffset" : 43284, "componentType" : 5123, "count" : 5436, "type" : "SCALAR", "max" : [5435], "min" : [0]}, {"bufferView" : 10, "byteOffset" : 0, "componentType" : 5126, "count" : 5436, "type" : "VEC3", "max" : [28.365461349487305, 0.3175000548362732, 21.998939514160156], "min" : [-28.365449905395508, -0.3175000548362732, -0.0698792040348053], "name" : "POSITION"}, {"bufferView" : 10, "byteOffset" : 12, "componentType" : 5126, "count" : 5436, "type" : "VEC3", "max" : [1.0000044107437134, 1.0000044107437134, 0.9974867701530457], "min" : [-1.0000044107437134, -1.0000044107437134, -0.9974885582923889], "name" : "NORMAL"}, {"bufferView" : 10, "byteOffset" : 24, "componentType" : 5126, "count" : 5436, "type" : "VEC2", "max" : [1.5737342834472656, 0.012753129005432129], "min" : [-3.4296624660491943, -1.0000437498092651], "name" : "TEXCOORD_0"}, {"bufferView" : 0, "byteOffset" : 54156, "componentType" : 5123, "count" : 3924, "type" : "SCALAR", "max" : [3923], "min" : [0]}, {"bufferView" : 11, "byteOffset" : 0, "componentType" : 5126, "count" : 3924, "type" : "VEC3", "max" : [28.365453720092773, 0.3175002932548523, 21.998939514160156], "min" : [-28.365449905395508, -0.31750017404556274, -0.06988117098808289], "name" : "POSITION"}, {"bufferView" : 11, "byteOffset" : 12, "componentType" : 5126, "count" : 3924, "type" : "VEC3", "max" : [1.0000044107437134, 1.0000044107437134, 0.9947514533996582], "min" : [-1.0000044107437134, -1.0000044107437134, -0.997488796710968], "name" : "NORMAL"}, {"bufferView" : 11, "byteOffset" : 24, "componentType" : 5126, "count" : 3924, "type" : "VEC2", "max" : [1.5723459720611572, 0.018756508827209473], "min" : [-0.24666249752044678, -1.0000015497207642], "name" : "TEXCOORD_0"}, {"bufferView" : 0, "byteOffset" : 62004, "componentType" : 5123, "count" : 5478, "type" : "SCALAR", "max" : [5477], "min" : [0]}, {"bufferView" : 12, "byteOffset" : 0, "componentType" : 5126, "count" : 5478, "type" : "VEC3", "max" : [29.000450134277344, 0.3175000846385956, 21.998939514160156], "min" : [-10.829679489135742, -0.3175000548362732, 0], "name" : "POSITION"}, {"bufferView" : 12, "byteOffset" : 12, "componentType" : 5126, "count" : 5478, "type" : "VEC3", "max" : [0.997488260269165, 1.0000044107437134, 0.9998350143432617], "min" : [-1.0000044107437134, -1.0000044107437134, -0.9998351335525513], "name" : "NORMAL"}, {"bufferView" : 12, "byteOffset" : 24, "componentType" : 5126, "count" : 5478, "type" : "VEC2", "max" : [1.0010778903961182, 1.8168127536773682], "min" : [-0.06818338483572006, -2.8168115615844727], "name" : "TEXCOORD_0"}], "asset" : {"generator" : "Aspose.3D 22.3", "version" : "2.0"}, "buffers" : [{"uri" : "data:application/octet-stream;base64,", "byteLength" : 1240372}], "bufferViews" : [{"buffer" : 0, "byteOffset" : 0, "byteLength" : 72960, "target" : 34963}, {"buffer" : 0, "byteOffset" : 72964, "byteLength" : 28800, "byteStride" : 32, "target" : 34962}, {"buffer" : 0, "byteOffset" : 101768, "byteLength" : 175296, "byteStride" : 32, "target" : 34962}, {"buffer" : 0, "byteOffset" : 277068, "byteLength" : 116160, "byteStride" : 32, "target" : 34962}, {"buffer" : 0, "byteOffset" : 393232, "byteLength" : 127296, "byteStride" : 32, "target" : 34962}, {"buffer" : 0, "byteOffset" : 520532, "byteLength" : 61056, "byteStride" : 32, "target" : 34962}, {"buffer" : 0, "byteOffset" : 581592, "byteLength" : 36288, "byteStride" : 32, "target" : 34962}, {"buffer" : 0, "byteOffset" : 617884, "byteLength" : 41856, "byteStride" : 32, "target" : 34962}, {"buffer" : 0, "byteOffset" : 659744, "byteLength" : 2688, "byteStride" : 32, "target" : 34962}, {"buffer" : 0, "byteOffset" : 662436, "byteLength" : 103104, "byteStride" : 32, "target" : 34962}, {"buffer" : 0, "byteOffset" : 765544, "byteLength" : 173952, "byteStride" : 32, "target" : 34962}, {"buffer" : 0, "byteOffset" : 939500, "byteLength" : 125568, "byteStride" : 32, "target" : 34962}, {"buffer" : 0, "byteOffset" : 1065072, "byteLength" : 175296, "byteStride" : 32, "target" : 34962}], "materials" : [{"name" : "Material #19", "pbrMetallicRoughness" : {"baseColorFactor" : [0, 0, 0, 1], "metallicFactor" : 0, "roughnessFactor" : 0}, "emissiveFactor" : [0, 0, 0], "alphaMode" : "OPAQUE", "doubleSided" : false}, {"name" : "Material #41", "pbrMetallicRoughness" : {"baseColorFactor" : [0, 0, 0, 1], "metallicFactor" : 0, "roughnessFactor" : 0}, "emissiveFactor" : [0, 0, 0], "alphaMode" : "OPAQUE", "doubleSided" : false}, {"name" : "Material #41", "pbrMetallicRoughness" : {"baseColorFactor" : [0, 0, 0, 1], "metallicFactor" : 0, "roughnessFactor" : 0}, "emissiveFactor" : [0, 0, 0], "alphaMode" : "OPAQUE", "doubleSided" : false}, {"name" : "Material #41", "pbrMetallicRoughness" : {"baseColorFactor" : [0, 0, 0, 1], "metallicFactor" : 0, "roughnessFactor" : 0}, "emissiveFactor" : [0, 0, 0], "alphaMode" : "OPAQUE", "doubleSided" : false}, {"name" : "Material #41", "pbrMetallicRoughness" : {"baseColorFactor" : [0, 0, 0, 1], "metallicFactor" : 0, "roughnessFactor" : 0}, "emissiveFactor" : [0, 0, 0], "alphaMode" : "OPAQUE", "doubleSided" : false}, {"name" : "Material #41", "pbrMetallicRoughness" : {"baseColorFactor" : [0, 0, 0, 1], "metallicFactor" : 0, "roughnessFactor" : 0}, "emissiveFactor" : [0, 0, 0], "alphaMode" : "OPAQUE", "doubleSided" : false}, {"name" : "Material #27", "pbrMetallicRoughness" : {"baseColorFactor" : [0, 0, 0, 1], "metallicFactor" : 0, "roughnessFactor" : 0}, "emissiveFactor" : [0, 0, 0], "alphaMode" : "OPAQUE", "doubleSided" : false}, {"name" : "Material #19", "pbrMetallicRoughness" : {"baseColorFactor" : [0, 0, 0, 1], "metallicFactor" : 0, "roughnessFactor" : 0}, "emissiveFactor" : [0, 0, 0], "alphaMode" : "OPAQUE", "doubleSided" : false}, {"name" : "Material #19", "pbrMetallicRoughness" : {"baseColorFactor" : [0, 0, 0, 1], "metallicFactor" : 0, "roughnessFactor" : 0}, "emissiveFactor" : [0, 0, 0], "alphaMode" : "OPAQUE", "doubleSided" : false}, {"name" : "Material #41", "pbrMetallicRoughness" : {"baseColorFactor" : [0, 0, 0, 1], "metallicFactor" : 0, "roughnessFactor" : 0}, "emissiveFactor" : [0, 0, 0], "alphaMode" : "OPAQUE", "doubleSided" : false}, {"name" : "Material #41", "pbrMetallicRoughness" : {"baseColorFactor" : [0, 0, 0, 1], "metallicFactor" : 0, "roughnessFactor" : 0}, "emissiveFactor" : [0, 0, 0], "alphaMode" : "OPAQUE", "doubleSided" : false}, {"name" : "Material #41", "pbrMetallicRoughness" : {"baseColorFactor" : [0, 0, 0, 1], "metallicFactor" : 0, "roughnessFactor" : 0}, "emissiveFactor" : [0, 0, 0], "alphaMode" : "OPAQUE", "doubleSided" : false}], "meshes" : [{"primitives" : [{"attributes" : {"POSITION" : 1, "NORMAL" : 2, "TEXCOORD_0" : 3}, "indices" : 0, "material" : 0, "mode" : 4}], "name" : ""}, {"primitives" : [{"attributes" : {"POSITION" : 5, "NORMAL" : 6, "TEXCOORD_0" : 7}, "indices" : 4, "material" : 1, "mode" : 4}], "name" : ""}, {"primitives" : [{"attributes" : {"POSITION" : 9, "NORMAL" : 10, "TEXCOORD_0" : 11}, "indices" : 8, "material" : 2, "mode" : 4}], "name" : ""}, {"primitives" : [{"attributes" : {"POSITION" : 13, "NORMAL" : 14, "TEXCOORD_0" : 15}, "indices" : 12, "material" : 3, "mode" : 4}], "name" : ""}, {"primitives" : [{"attributes" : {"POSITION" : 17, "NORMAL" : 18, "TEXCOORD_0" : 19}, "indices" : 16, "material" : 4, "mode" : 4}], "name" : ""}, {"primitives" : [{"attributes" : {"POSITION" : 21, "NORMAL" : 22, "TEXCOORD_0" : 23}, "indices" : 20, "material" : 5, "mode" : 4}], "name" : ""}, {"primitives" : [{"attributes" : {"POSITION" : 25, "NORMAL" : 26, "TEXCOORD_0" : 27}, "indices" : 24, "material" : 6, "mode" : 4}], "name" : ""}, {"primitives" : [{"attributes" : {"POSITION" : 29, "NORMAL" : 30, "TEXCOORD_0" : 31}, "indices" : 28, "material" : 7, "mode" : 4}], "name" : ""}, {"primitives" : [{"attributes" : {"POSITION" : 33, "NORMAL" : 34, "TEXCOORD_0" : 35}, "indices" : 32, "material" : 8, "mode" : 4}], "name" : ""}, {"primitives" : [{"attributes" : {"POSITION" : 37, "NORMAL" : 38, "TEXCOORD_0" : 39}, "indices" : 36, "material" : 9, "mode" : 4}], "name" : ""}, {"primitives" : [{"attributes" : {"POSITION" : 41, "NORMAL" : 42, "TEXCOORD_0" : 43}, "indices" : 40, "material" : 10, "mode" : 4}], "name" : ""}, {"primitives" : [{"attributes" : {"POSITION" : 45, "NORMAL" : 46, "TEXCOORD_0" : 47}, "indices" : 44, "material" : 11, "mode" : 4}], "name" : ""}], "nodes" : [{"matrix" : [0.9198999999999999, 0, 0, 0, 0, 0.9198999999999999, 0, 0, 0, 0, 0.9198999999999999, 0, 0.202545166015625, 19.455197153949737, -33.18949889144898, 1], "mesh" : 0, "name" : "Box013"}, {"matrix" : [-1.0969697290841295E-08, 0, -0.9198999999999998, 0, -0.9198999999999998, -1.096969279714699E-08, 1.0969697341906003E-08, 0, 1.0969692695017573E-08, -0.9198999999999999, -1.0212941603526814E-16, 0, -26.182924398100948, 10.018436643600438, -1.1259508435249082, 1], "mesh" : 1, "name" : "Box016"}, {"matrix" : [0.7046840727577253, 3.362966867379024E-08, 0.5913005729758628, 0, -0.5913005729758608, -5.245030944773798E-08, 0.7046840727577259, 0, 5.947623639295796E-08, -0.9198999999999979, -1.8562512606901114E-08, 0, -7.696532441657711, 10.018442305702472, 24.520297654210808, 1], "mesh" : 2, "name" : "Box017"}, {"matrix" : [0.7966567635523132, 0, -0.4599500093340074, 0, 0.45995000933398916, -2.5953135066847377E-07, 0.7966567635522817, 0, -1.2976567793853698E-07, -0.9198999999999635, -2.247607412319219E-07, 0, 17.61058256780351, 10.018407051211076, 13.676063636745997, 1], "mesh" : 3, "name" : "Box018"}, {"matrix" : [6.94505184536287E-08, 0, -0.9198999999999975, 0, 0.9198999999999747, -2.0470104876531003E-07, 6.945051865788753E-08, 0, -2.047010485610512E-07, -0.9198999999999774, -1.5523671237360757E-14, 0, -4.862580841768418, 10.018425828838643, -0.5418185407639129, 1], "mesh" : 4, "name" : "Box020"}, {"matrix" : [6.94505184536287E-08, 0, -0.9198999999999975, 0, 0.9198999999999747, -2.0470104876531003E-07, 6.945051865788753E-08, 0, -2.047010485610512E-07, -0.9198999999999774, -1.5523671237360757E-14, 0, 5.830108083560031, 10.018423221302294, 16.692751922702783, 1], "mesh" : 5, "name" : "Box021"}, {"matrix" : [1.0969697290841295E-08, 5.106470801763407E-17, 0.9198999999999999, 0, -0.9198999999999975, 6.945051855575812E-08, 1.0969697495100127E-08, 0, -6.945051865788753E-08, -0.9198999999999975, 6.127764962116088E-16, 0, 1.1088977999231548, 14.380236403562513, 26.095646955614956, 1], "mesh" : 6, "name" : "Box022"}, {"matrix" : [0.9198999999999999, 0, 0, 0, 0, 0.409848, 0, 0, 0, 0, 0.9198999999999999, 0, 0.20251276535894722, 13.844897845787049, 7.804594919586183, 1], "mesh" : 7, "name" : "Box023"}, {"matrix" : [1, 0, 0, 0, 0, -1.6292068494294654E-07, 0.9999999999999868, 0, 0, -0.9999999999999868, -1.6292068494294654E-07, 0, 0.202545166015625, 9.184067713818498, -0.3977890004168808, 1], "mesh" : 8, "name" : "Box078"}, {"matrix" : [0.9198999999999999, 0, 0, 0, 0, -1.4987073950882832E-07, 0.9198999999999878, 0, 0, -0.9198999999999878, -1.4987073950882832E-07, 0, 0.202545166015625, 10.018429685402051, -9.692672729492141, 1], "mesh" : 9, "name" : "Box079"}, {"matrix" : [0.9198999999999999, 0, 0, 0, 0, -1.4987073950882832E-07, 0.9198999999999878, 0, 0, -0.9198999999999878, -1.4987073950882832E-07, 0, 0.2025146484375, 10.018429685402051, -26.927261352539016, 1], "mesh" : 10, "name" : "Box080"}, {"matrix" : [2.0425883207053629E-16, 5.106470801763407E-17, -0.9198999999999999, 0, 0.9198999999998764, -4.768372816131183E-07, 1.531941240529022E-16, 0, -4.768372816131183E-07, -0.9198999999998764, 0, 0, 26.58798852020941, 10.018436643598534, -1.125950843524933, 1], "mesh" : 11, "name" : "Box081"}, {"children" : [0, 1, 2, 3, 4, 5, 6, 7, 8, 9, 10, 11], "matrix" : [1, 0, 0, 0, 0, 2.220446049250313E-16, -1, 0, 0, 1, 2.220446049250313E-16, 0, -234.97714233398438, 86.32867431640625, -199.49209594726562, 1], "name" : "Group010"}], "scene" : 0, "scenes" : [{"nodes" : [12]}]}